<?xml version="1.0" encoding="UTF-8"?>
<svg xmlns="http://www.w3.org/2000/svg" id="Camada_1" data-name="Camada 1" version="1.1" viewBox="0 0 255.8 42.5">
  <defs>
    <style>
      .cls-1 {
        fill: #e72a60;
      }

      .cls-1, .cls-2 {
        stroke-width: 0px;
      }

      .cls-2 {
        fill: #2a2e6b;
      }
    </style>
  </defs>
  <g>
    <path class="cls-2" d="M57.4,17.2l-1.6-.3v-1.5h3.5c.2,0,.7,0,1.3,0,.8,0,1.6,0,2.3,0,1.6,0,2.8.2,3.7.6.9.4,1.5.9,1.9,1.6.4.7.6,1.6.6,2.6,0,1.8-.6,3.3-1.7,4.3-1.1,1-2.7,1.5-4.8,1.5s-1.1,0-1.5,0v3.9l2.8.2v1.4h-8.2v-1.4l1.7-.2v-12.6ZM62.5,24.5c1.9,0,2.8-1.4,2.8-4.3s-.2-2.1-.7-2.6-1.2-.8-2.1-.8-.7,0-.9,0c-.2,0-.4,0-.5,0v7.5c.3,0,.8.1,1.4.1Z"></path>
    <path class="cls-2" d="M71.5,30c-.9-1.1-1.4-2.6-1.4-4.6s.2-2.4.7-3.4c.5-.9,1.2-1.7,2.1-2.2.9-.5,1.9-.7,3.1-.7s2.7.4,3.5,1.1c.8.8,1.2,1.8,1.2,3.2,0,.9,0,1.7-.2,2.2h-6.8c0,1.2.4,2.2.9,2.8s1.3,1,2.2,1,1.1,0,1.7-.3,1.1-.4,1.4-.6l.6,1.3c-.4.4-1,.8-1.9,1.2-.9.4-1.8.6-2.8.6-2,0-3.4-.6-4.4-1.7ZM77.3,24.3v-.9c0-.9-.1-1.6-.3-2.1-.2-.5-.7-.7-1.3-.7s-1.1.3-1.4.8c-.3.5-.5,1.5-.5,2.9h3.5Z"></path>
    <path class="cls-2" d="M83.8,31c-.5-.4-.7-1.1-.7-2v-7.7h-1.3v-1.2l.4-.2c.3-.1.6-.2.9-.4.3-.3.5-.6.7-1.1.2-.5.5-1.2.7-2.2h2v3.2h3.2v1.8h-3v5.7c0,.8,0,1.3,0,1.7,0,.3.1.5.2.6.1,0,.3.1.7.1.7,0,1.3-.1,1.9-.3l.5,1.4c-.4.3-1,.6-1.8.9-.8.2-1.6.4-2.4.4s-1.6-.2-2.1-.7Z"></path>
    <path class="cls-2" d="M99.6,31.5c-.7-.1-1.4-.3-2.1-.5-.5-.1-.8-.2-1-.2l.2-4h2l.5,2.8c.2.2.4.4.9.5.4.1.9.2,1.5.2.9,0,1.5-.2,2-.6s.7-.9.7-1.6-.1-.9-.4-1.2c-.3-.4-.7-.7-1.2-1-.5-.3-1.2-.6-2-1-1.1-.5-2.1-1.2-2.9-2-.8-.8-1.2-1.9-1.2-3.2s.2-1.5.6-2.2c.4-.7,1-1.2,1.9-1.6.8-.4,1.9-.6,3.2-.6s1.4,0,2,.2c.6,0,1.2.2,1.8.4.3.1.6.2.8.2v3.8h-2.1l-.5-2.7c-.1-.1-.3-.2-.7-.4s-.7-.2-1.2-.2c-.8,0-1.4.2-1.8.6-.4.4-.6.9-.6,1.4s.2,1,.5,1.4c.3.4.7.7,1.2,1,.5.3,1.2.6,2.1,1.1.8.4,1.4.8,2,1.1.6.4,1.1.9,1.5,1.5.4.6.6,1.3.6,2.1s-.2,1.6-.6,2.3c-.4.7-1,1.3-2,1.8-.9.5-2.1.7-3.6.7s-1.5,0-2.2-.2Z"></path>
    <path class="cls-2" d="M110.2,22c.5-1,1.3-1.7,2.2-2.1.9-.5,1.9-.7,3.1-.7,1.8,0,3.2.5,4.3,1.6,1,1.1,1.5,2.6,1.5,4.5s-.3,2.6-.8,3.6c-.5.9-1.3,1.7-2.2,2.1s-1.9.7-3.1.7c-1.8,0-3.2-.5-4.2-1.6-1-1.1-1.5-2.6-1.5-4.5s.3-2.5.8-3.5ZM116.9,29.1c.3-.7.5-1.9.5-3.5s-.2-2.9-.5-3.7c-.3-.8-.9-1.2-1.6-1.2-1.4,0-2.1,1.5-2.1,4.6s.2,2.9.5,3.7c.3.8.9,1.2,1.7,1.2s1.2-.4,1.5-1.1Z"></path>
    <path class="cls-2" d="M123.7,22.2c.5-1,1.2-1.7,2.2-2.2.9-.5,2-.8,3.2-.8s1.1,0,1.6.1c.4,0,.9.2,1.3.3.4.1.7.2.8.2l-.2,3.9h-2.2l-.6-2.5c0-.2-.2-.3-.4-.4-.2,0-.4-.1-.7-.1-.7,0-1.2.3-1.6,1-.4.7-.6,1.8-.6,3.3s.2,2.6.7,3.4c.5.8,1.1,1.2,2,1.2s2-.3,2.9-.8l.6,1.3c-.3.4-.9.8-1.7,1.1-.8.4-1.7.5-2.6.5-1.9,0-3.3-.6-4.2-1.7-.9-1.1-1.4-2.6-1.4-4.5s.3-2.4.8-3.4Z"></path>
    <path class="cls-2" d="M135.7,21.7l-1.4-.4v-1.6l4.3-.5h0l.7.5v10.2l1.3.2v1.4h-6.2v-1.4l1.3-.2v-8.1ZM135.7,17.1c-.3-.3-.5-.8-.5-1.3s.2-1.1.6-1.5c.4-.4.9-.6,1.5-.6s1.1.2,1.5.5c.3.3.5.8.5,1.3s-.2,1.1-.6,1.5c-.4.4-.9.6-1.6.6h0c-.6,0-1-.2-1.4-.5Z"></path>
    <path class="cls-2" d="M143.7,25.1c1.3-.7,3-1,5.1-1v-.4c0-.5,0-.9-.2-1.2-.1-.3-.3-.5-.6-.7s-.7-.2-1.3-.2-1.3,0-1.9.2-1.1.4-1.7.7l-.7-1.6c.2-.2.6-.4,1.1-.7.5-.3,1.1-.5,1.9-.7.7-.2,1.5-.3,2.3-.3,1.2,0,2.1.2,2.7.5.7.3,1.1.8,1.4,1.4s.4,1.5.4,2.6v6.4h1.1v1.4c-.3,0-.8.1-1.4.2-.6,0-1.1.1-1.5.1s-.9,0-1.1-.2c-.2-.2-.3-.5-.3-.9v-.5c-.4.4-.8.8-1.4,1.2s-1.3.5-2.1.5-1.3-.1-1.8-.4c-.6-.3-1-.7-1.3-1.3-.3-.6-.5-1.2-.5-2,0-1.3.6-2.2,1.9-2.9ZM148,29.5c.3-.2.6-.3.8-.6v-3.4c-1.1,0-2,.2-2.5.6-.5.4-.8.9-.8,1.6s.1,1.2.4,1.5c.3.4.7.5,1.2.5s.5,0,.9-.2Z"></path>
    <path class="cls-2" d="M155.5,15.9l-1.5-.3v-1.3l4.3-.5h0l.6.5v15.6l1.4.2v1.4h-6.3v-1.4l1.4-.2v-14Z"></path>
    <path class="cls-2" d="M170.3,31.5c-.7-.1-1.4-.3-2.1-.5-.5-.1-.8-.2-1-.2l.2-4h2l.5,2.8c.2.2.4.4.9.5.4.1.9.2,1.5.2.9,0,1.5-.2,2-.6s.7-.9.7-1.6-.1-.9-.4-1.2c-.3-.4-.7-.7-1.2-1-.5-.3-1.2-.6-2-1-1.1-.5-2.1-1.2-2.9-2-.8-.8-1.2-1.9-1.2-3.2s.2-1.5.6-2.2c.4-.7,1-1.2,1.9-1.6.8-.4,1.9-.6,3.2-.6s1.4,0,2,.2c.6,0,1.2.2,1.8.4.3.1.6.2.8.2v3.8h-2.1l-.5-2.7c-.1-.1-.3-.2-.7-.4-.4-.1-.7-.2-1.2-.2-.8,0-1.4.2-1.8.6-.4.4-.6.9-.6,1.4s.2,1,.5,1.4c.3.4.7.7,1.2,1,.5.3,1.2.6,2.1,1.1.8.4,1.4.8,2,1.1.6.4,1.1.9,1.5,1.5s.6,1.3.6,2.1-.2,1.6-.6,2.3-1,1.3-2,1.8c-.9.5-2.1.7-3.6.7s-1.5,0-2.2-.2Z"></path>
    <path class="cls-2" d="M181.2,30c-.9-1.1-1.4-2.6-1.4-4.6s.2-2.4.7-3.4c.5-.9,1.2-1.7,2.1-2.2.9-.5,1.9-.7,3.1-.7s2.7.4,3.5,1.1c.8.8,1.2,1.8,1.2,3.2,0,.9,0,1.7-.2,2.2h-6.8c0,1.2.4,2.2.9,2.8.5.6,1.3,1,2.2,1s1.1,0,1.7-.3c.6-.2,1.1-.4,1.4-.6l.6,1.3c-.4.4-1,.8-1.9,1.2-.9.4-1.8.6-2.8.6-2,0-3.4-.6-4.4-1.7ZM187,24.3v-.9c0-.9-.1-1.6-.3-2.1-.2-.5-.7-.7-1.2-.7s-1.1.3-1.4.8-.5,1.5-.5,2.9h3.5Z"></path>
    <path class="cls-2" d="M192.5,22.2c.5-1,1.2-1.7,2.2-2.2.9-.5,2-.8,3.2-.8s1.1,0,1.6.1c.4,0,.9.2,1.3.3.4.1.7.2.8.2l-.2,3.9h-2.2l-.6-2.5c0-.2-.2-.3-.4-.4-.2,0-.4-.1-.7-.1-.7,0-1.2.3-1.6,1-.4.7-.6,1.8-.6,3.3s.2,2.6.7,3.4c.5.8,1.1,1.2,2,1.2s2-.3,2.9-.8l.6,1.3c-.3.4-.9.8-1.7,1.1-.8.4-1.7.5-2.6.5-1.9,0-3.3-.6-4.2-1.7-.9-1.1-1.4-2.6-1.4-4.5s.3-2.4.8-3.4Z"></path>
    <path class="cls-2" d="M211.9,31.3c-.2-.2-.3-.5-.3-1v-.5c-.3.5-.9.9-1.6,1.3-.7.4-1.4.5-2.1.5-1.4,0-2.4-.3-3-1s-.9-1.9-.9-3.5v-6l-1-.3v-1.4l4.1-.3h0l.5.3v7.7c0,.9.1,1.6.3,2,.2.4.6.6,1.2.6s1.5-.3,2-.8v-7.8l-1.3-.3v-1.3l4.3-.3h0l.5.3v10.5h1.1v1.4c-.5.1-.9.2-1.3.2-.4,0-.9,0-1.4,0s-.9-.1-1.1-.3Z"></path>
    <path class="cls-2" d="M217.2,30l1.3-.2v-8.1l-1.3-.4v-1.7l3.6-.5h0l.6.5v2.3c0,0,0,0,0,0,0-.3.3-.7.7-1.2.4-.4.8-.8,1.4-1.1.6-.3,1.2-.5,1.8-.5s.7,0,.9.2v3.8c-.2-.2-.5-.3-.7-.4-.3-.1-.6-.2-1-.2s-1,0-1.4.2c-.4.1-.7.3-1,.5v6.7l2.4.2v1.4h-7.2v-1.4Z"></path>
    <path class="cls-2" d="M228.8,21.7l-1.4-.4v-1.6l4.3-.5h0l.7.5v10.2l1.3.2v1.4h-6.2v-1.4l1.3-.2v-8.1ZM228.8,17.1c-.3-.3-.5-.8-.5-1.3s.2-1.1.6-1.5c.4-.4.9-.6,1.5-.6s1.1.2,1.5.5c.3.3.5.8.5,1.3s-.2,1.1-.6,1.5c-.4.4-.9.6-1.6.6h0c-.6,0-1-.2-1.4-.5Z"></path>
    <path class="cls-2" d="M236.7,31c-.5-.4-.7-1.1-.7-2v-7.7h-1.3v-1.2l.4-.2c.3-.1.6-.2.9-.4.3-.3.5-.6.7-1.1.2-.5.5-1.2.7-2.2h2v3.2h3.2v1.8h-3v5.7c0,.8,0,1.3,0,1.7,0,.3.1.5.2.6.1,0,.3.1.7.1.7,0,1.3-.1,1.9-.3l.5,1.4c-.4.3-1,.6-1.8.9-.8.2-1.6.4-2.4.4s-1.6-.2-2.1-.7Z"></path>
    <path class="cls-2" d="M245.2,36.8c-.3,0-.6,0-.7-.2v-2.6c0,0,.3.1.6.2s.6,0,.9,0c.7,0,1.3-.2,1.7-.7.4-.5.8-1.2,1.2-2.2h-1.3l-4-10.4-.9-.3v-1.4h6.4v1.4l-1.5.3,1.8,5.7.6,2.2.5-2.2,1.7-5.8-1.3-.2v-1.4h4.9v1.4l-1,.2c-.6,1.9-1.3,4-2.2,6.5-.9,2.5-1.4,3.9-1.5,4.1-.4,1.2-.9,2.2-1.3,2.9s-1,1.3-1.5,1.7-1.3.6-2.1.6-.6,0-.9,0Z"></path>
  </g>
  <g>
    <path class="cls-1" d="M17.4,38.6c-7.3-1.2-12.9-7.6-12.9-15.2s6.1-14.6,14-15.4c.3-.9.4-2.3,1.2-3.7-.2,0-.4,0-.6,0C8.6,4.3,0,12.8,0,23.4s8.6,19.1,19.1,19.1,1.8,0,2.7-.2c-.3-1.3-2.1-2.4-4.4-3.7Z"></path>
    <path class="cls-2" d="M11,19c-.9,0-2.2.2-3.7,1.8,1.4-4,5.5-6.5,9.4-8.1-1.3-.3-2.7-.3-4.3.1,1.3-1.7,4.3-2.4,7.3-3.5.6-1.3,2.9-6.4,6.6-9.1,0,0,.1-.1.2-.3.4,2.1.7,4.1,1.1,6.1,1.4-1.1,2.5-1.7,4.2-3.5,0,.4-1,4.2-1.7,7,3.7.6,5,3.2,6.7,5.8.3.7-4.7-6.7-10.1,3.2,8-6.8,9.2-.4,13.4-.4-4.4,0-11.5-3.4-15.6,8.7-1.2-6.1-2.2-8.9,4.3-16.5-19.6,15,3.2,26.5-5.3,31.4.2-6.1-20.7-7.5-12.4-22.9ZM19.5,29.6c-2.9-8-1.9-9.6,1.8-15.1-1.4,1.2-10.8,6.9-1.8,15.1ZM23.3,11.7s2.4-2.3,2.7-2.6c0-1.1-.4-4.2-.4-5.1-3.9,4.9-2.2,7.2-2.2,7.7Z"></path>
    <path class="cls-2" d="M45.7,22c0,1.6-.1,6.7-8,6.7s-.2,4.4-11.7,12.2c5-3.5-.9-14.2,11.5-14.2s8.1-3.8,8.2-4.7Z"></path>
    <path class="cls-2" d="M26.4,32.1c-.5-8.8,4.5-11.4,9.1-9.4-3.2.5-8.6,3.1-9.1,9.4Z"></path>
    <path class="cls-2" d="M42.6,18.8c3.6,0,3.1,1.6,3.1,3.2-3.3-.4-4.5-1.5-3.1-3.2Z"></path>
  </g>
</svg>
